HIERARCHY
ROOT Hips
{
	OFFSET	0.000000	0.000000	0.000000
	CHANNELS 6 Xposition Yposition Zposition Zrotation Xrotation Yrotation
	JOINT LeftUpLeg
	{
		OFFSET	11.840399	-0.173119	-0.075538
		CHANNELS 3 Zrotation Xrotation Yrotation
		JOINT LeftLeg
		{
			OFFSET	0.064808	-44.851298	0.781096
			CHANNELS 3 Zrotation Xrotation Yrotation
			JOINT LeftFoot
			{
				OFFSET	-0.411978	-49.277500	-5.913910
				CHANNELS 3 Zrotation Xrotation Yrotation
				JOINT LeftFootHeel
				{
					OFFSET	0.398859	-7.754640	-1.534350
					CHANNELS 3 Zrotation Xrotation Yrotation
					End Site
					{
						OFFSET	-0.801033	0.000000	15.913000
					}
				}
			}
		}
	}
	JOINT RightUpLeg
	{
		OFFSET	-11.834999	-0.173119	-0.075545
		CHANNELS 3 Zrotation Xrotation Yrotation
		JOINT RightLeg
		{
			OFFSET	0.475869	-44.754298	0.015312
			CHANNELS 3 Zrotation Xrotation Yrotation
			JOINT RightFoot
			{
				OFFSET	-0.134178	-49.374297	-5.148100
				CHANNELS 3 Zrotation Xrotation Yrotation
				JOINT RightFootHeel
				{
					OFFSET	-0.839358	-7.754890	-1.534350
					CHANNELS 3 Zrotation Xrotation Yrotation
					End Site
					{
						OFFSET	-0.408955	0.000000	15.913000
					}
				}
			}
		}
	}
	JOINT Spine
	{
		OFFSET	0.050508	11.209099	-0.582724
		CHANNELS 3 Zrotation Xrotation Yrotation
		JOINT Spine1
		{
			OFFSET	0.042163	9.774660	-1.172990
			CHANNELS 3 Zrotation Xrotation Yrotation
			JOINT LeftShoulder
			{
				OFFSET	5.603600	33.379699	4.558560
				CHANNELS 3 Zrotation Xrotation Yrotation
				JOINT LeftArm
				{
					OFFSET	13.074199	-1.820300	-4.573250
					CHANNELS 3 Zrotation Xrotation Yrotation
					JOINT LeftForeArm
					{
						OFFSET	5.636920	-32.087297	-3.211630
						CHANNELS 3 Zrotation Xrotation Yrotation
						JOINT LeftHand
						{
							OFFSET	3.776520	-29.426399	4.832530
							CHANNELS 3 Zrotation Xrotation Yrotation
							End Site
							{
								OFFSET	-0.179757	-9.309100	2.195490
							}
						}
					}
				}
			}
			JOINT RightShoulder
			{
				OFFSET	-4.623460	33.254699	4.558560
				CHANNELS 3 Zrotation Xrotation Yrotation
				JOINT RightArm
				{
					OFFSET	-13.749399	-1.225980	-4.573250
					CHANNELS 3 Zrotation Xrotation Yrotation
					JOINT RightForeArm
					{
						OFFSET	-4.875480	-32.133799	-3.211650
						CHANNELS 3 Zrotation Xrotation Yrotation
						JOINT RightHand
						{
							OFFSET	-6.200270	-29.009799	4.832530
							CHANNELS 3 Zrotation Xrotation Yrotation
							End Site
							{
								OFFSET	-0.386105	-9.730280	2.195490
							}
						}
					}
				}
			}
			JOINT Neck
			{
				OFFSET	0.427050	38.342097	-0.327886
				CHANNELS 3 Zrotation Xrotation Yrotation
				JOINT Head
				{
					OFFSET	-0.148467	9.384920	4.054140
					CHANNELS 3 Zrotation Xrotation Yrotation
					End Site
					{
						OFFSET	-0.426895	13.303099	0.399781
					}
				}
			}
		}
	}
}
MOTION
Frames:    11
Frame Time: 0.016667
-1.430988	103.623295	8.190648	-6.997734	-8.630995	-34.013699	4.159150	4.874221	2.520464	-7.283999	11.387899	10.582805	0.620814	-5.386681	-6.004296	0.	0.	0.	-5.734520	-3.478259	-3.269305	-1.429159	19.428600	-32.864101	3.976001	0.922226	-24.395300	0.	0.	0.	-0.000002	0.000002	0.000004	-10.915299	18.548597	6.356695	1.855510	-5.458701	-0.444986	4.500079	-1.862880	-20.881397	2.664458	-7.904369	8.922425	1.302868	-0.802485	-12.062497	2.795400	-4.071761	-1.652528	5.643829	1.453780	13.544304	0.062354	-7.997220	-13.285399	-1.375170	2.705980	0.512104	1.888380	-8.036701	0.015665	1.268569	-9.739568	-9.413297	
-1.285439	103.680869	8.166888	-7.082153	-8.603820	-34.121330	4.021131	4.969069	2.489989	-7.052279	11.143600	10.571900	0.652684	-5.233580	-5.868293	0.	0.	0.	-6.005859	-4.042260	-3.162670	-1.199978	20.449701	-33.019695	4.310930	1.478293	-24.197203	0.	0.	0.	-0.000001	0.000001	0.000001	-11.469400	18.543100	6.640930	1.842580	-5.666909	-0.484653	4.753911	-1.896380	-20.856001	2.715541	-8.148310	8.918304	1.250361	-0.790697	-12.090096	2.847090	-4.074089	-1.630190	5.665112	1.546041	13.640902	0.136526	-8.199879	-13.108000	-1.319999	2.751311	0.589793	2.296900	-8.071059	0.186876	1.421890	-9.804170	-9.294870	
-1.126081	103.744276	8.132556	-7.187903	-8.570087	-34.239849	3.885700	5.062099	2.434621	-6.807920	10.892200	10.497401	0.673046	-5.068671	-5.630328	0.	0.	0.	-6.291602	-4.617680	-2.975870	-0.888067	21.515499	-33.158699	4.656080	2.108480	-24.097401	0.	0.	0.	-0.000002	0.000001	0.000001	-11.997102	18.558500	6.932922	1.877549	-5.885620	-0.551222	4.930720	-1.892440	-20.786400	2.792802	-8.398501	8.939254	1.302892	-0.820171	-12.071800	2.888930	-4.137690	-1.606547	5.712670	1.674240	13.710302	0.154729	-8.381710	-12.928099	-1.328580	2.786141	0.731878	2.529789	-8.096930	0.406919	1.718329	-9.872000	-9.383236	
-0.980347	103.808924	8.086903	-7.282802	-8.523397	-34.342072	3.756750	5.150740	2.342909	-6.571980	10.606400	10.361898	0.703865	-4.896019	-5.303139	0.	0.	0.	-6.593410	-5.222610	-2.692392	-0.493002	22.609400	-33.314499	4.998549	2.794468	-24.115698	0.	0.	0.	-0.000001	0.000000	-0.000001	-12.473602	18.527300	7.174428	1.934799	-6.070309	-0.598033	5.024379	-1.881379	-20.746004	2.980139	-8.365779	8.936442	1.295150	-1.076239	-11.936610	2.882070	-4.234679	-1.587571	5.753248	1.803771	13.763498	0.168106	-8.447270	-12.769094	-1.343922	2.772231	0.872009	2.659960	-8.128079	0.436931	2.125030	-9.856660	-9.057592	
-0.855507	103.870519	8.059647	-7.359132	-8.434096	-34.414963	3.643940	5.197420	2.224623	-6.344571	10.336498	10.155103	0.741814	-4.750039	-4.905408	0.	0.	0.	-6.880071	-5.858650	-2.329319	-0.005873	23.708294	-33.434601	5.327592	3.467017	-24.351196	0.	0.	0.	-0.000002	0.000001	0.000002	-12.853899	18.378300	7.323253	1.980630	-6.185000	-0.621860	5.065811	-1.872589	-20.757696	3.060601	-8.488458	9.024108	1.438931	-1.095400	-11.851192	3.087960	-4.239690	-1.549986	5.514330	1.834070	13.820905	0.414009	-8.472328	-12.725598	-1.585000	2.779181	1.086096	2.768360	-8.101250	0.488786	2.520730	-9.779249	-8.669478	
-0.743134	103.924081	8.034649	-7.422546	-8.401016	-34.424507	3.514520	5.293211	2.082871	-6.131299	10.045400	9.927350	0.782239	-4.605891	-4.547511	0.	0.	0.	-7.175270	-6.414080	-1.947078	0.546117	24.794003	-33.442795	5.707290	4.021290	-24.824799	0.	0.	0.	-0.000001	0.000002	0.000001	-13.215702	18.273703	7.388382	2.220069	-6.205478	-0.587392	4.892909	-1.956407	-20.836296	3.124258	-8.517178	9.157541	1.551719	-1.111008	-11.782701	3.016009	-4.277898	-1.529848	5.512938	1.843983	13.825204	0.423645	-8.359907	-12.592195	-1.552631	2.803302	1.134383	2.918059	-8.040097	0.637936	2.848338	-9.719748	-8.338432	
-0.647666	103.969098	8.027459	-7.435339	-8.349502	-34.419678	3.364439	5.355879	1.974059	-5.912870	9.766768	9.777369	0.802944	-4.475761	-4.300481	0.	0.	0.	-7.461970	-6.955921	-1.570173	1.050418	25.800795	-33.277004	6.192212	4.459687	-25.432196	0.	0.	0.	-0.000001	0.000000	-0.000002	-13.547601	18.142597	7.415087	2.269241	-6.308091	-0.575974	4.886090	-1.944541	-20.899105	3.159092	-8.511211	9.276524	1.715862	-1.012210	-11.815909	2.926451	-4.312430	-1.517823	5.494091	1.817800	13.808694	0.406698	-8.255221	-12.548905	-1.520429	2.842049	1.211886	3.127901	-7.998810	0.894204	3.038032	-9.642552	-8.115774	
-0.601422	104.008359	8.046718	-7.422294	-8.264213	-34.413227	3.240160	5.386470	1.929540	-5.700420	9.533700	9.647591	0.798669	-4.379729	-4.120810	0.	0.	0.	-7.719780	-7.473471	-1.239329	1.524801	26.695499	-33.020195	6.677032	4.752581	-26.025997	0.	0.	0.	-0.000001	0.000000	0.000000	-13.832201	17.981701	7.431510	2.326229	-6.398950	-0.582081	4.856708	-1.901570	-20.933594	3.180728	-8.523852	9.353402	1.719398	-1.006643	-11.793097	2.838539	-4.346580	-1.509417	5.450458	1.781361	13.663302	0.388249	-8.205958	-12.526398	-1.525252	2.867211	1.300281	3.318919	-8.017900	1.106453	3.195287	-9.508412	-7.885797	
-0.564063	104.041080	8.068330	-7.415409	-8.210765	-34.391994	3.122300	5.436031	1.922192	-5.503219	9.330159	9.484552	0.795864	-4.297071	-3.962370	0.	0.	0.	-7.950632	-7.876659	-1.017567	1.917900	27.463495	-32.708199	7.126821	4.826069	-26.456900	0.	0.	0.	-0.000001	0.000001	0.000003	-14.097001	17.861000	7.439774	2.393360	-6.484478	-0.585286	4.824790	-1.816088	-20.959797	3.191129	-8.549659	9.378883	1.639799	-0.977071	-11.819698	2.773180	-4.378919	-1.494519	5.381979	1.742191	13.432798	0.383275	-8.213658	-12.561600	-1.581120	2.838370	1.334561	3.380770	-8.026278	1.114013	3.450889	-9.407969	-7.481706	
-0.586531	104.084188	8.082891	-7.449039	-8.203290	-34.292316	3.097811	5.557439	1.867861	-5.382320	9.116301	9.268574	0.800730	-4.215419	-3.798596	0.	0.	0.	-8.135900	-8.091941	-0.957456	2.192410	28.057098	-32.388996	7.437298	4.597403	-26.795797	0.	0.	0.	-0.000002	0.000001	0.000000	-14.293501	17.830099	7.380371	2.461498	-6.581689	-0.570763	4.801509	-1.718279	-21.005899	3.170969	-8.557849	9.332564	1.504199	-0.940087	-11.855999	2.725739	-4.409630	-1.477219	5.296489	1.703939	13.178700	0.357899	-8.269320	-12.636601	-1.649401	2.772409	1.246952	3.404978	-8.010980	1.136621	3.680099	-9.378730	-7.119191	
-0.634364	104.126026	8.096335	-7.483893	-8.184323	-34.121967	3.120820	5.650839	1.805572	-5.286560	8.938248	9.009831	0.805538	-4.149382	-3.655181	0.	0.	0.	-8.283450	-8.175949	-1.046508	2.310520	28.354605	-32.037102	7.711198	4.372611	-26.665804	0.	0.	0.	-0.000001	0.000001	0.000002	-14.414000	17.819401	7.275331	2.503901	-6.667631	-0.595853	4.812070	-1.628200	-21.041599	3.116131	-8.535973	9.265190	1.359061	-0.917177	-11.953296	2.692921	-4.442520	-1.474379	5.188951	1.677911	12.951200	0.315726	-8.308032	-12.789200	-1.708629	2.647030	1.089960	3.442361	-7.991430	1.276732	3.812070	-9.411949	-6.938327	
